<?xml version="1.0" encoding="utf-8"?>
<!-- Generator: Adobe Illustrator 22.1.0, SVG Export Plug-In . SVG Version: 6.00 Build 0)  -->
<svg version="1.1" id="Laag_1" xmlns="http://www.w3.org/2000/svg" xmlns:xlink="http://www.w3.org/1999/xlink" x="0px" y="0px"
	 viewBox="0 0 64 64" style="enable-background:new 0 0 64 64;" xml:space="preserve">
<style type="text/css">
	.st0{fill:#FFFFFF;}
</style>
<g>
	<path class="st0" d="M51.3,11.2c-0.4-0.7-1.1-1.1-1.8-1c-0.8,0-1.6,0.5-1.9,1.3l-3,7.8c-0.4,1,0.1,2.2,1.2,2.6
		c0.2,0.1,0.5,0.1,0.7,0.1c0.8,0,1.6-0.5,1.9-1.3l1.4-3.8l4.2,7.9c-1.4-0.5-2.9-0.7-4.4-0.7c-6.1,0-11.3,3.8-13.4,9.1
		c-3.8-1.5-6.8-0.7-8.3,0c-2.1-5.3-7.3-9.1-13.4-9.1c-1.6,0-3.1,0.3-4.5,0.7l4.2-7.9l1.4,3.8c0.3,0.8,1.1,1.3,1.9,1.3
		c0.2,0,0.5,0,0.7-0.1c1-0.4,1.5-1.5,1.2-2.6l-3-7.8c-0.3-0.8-1.1-1.3-1.9-1.3c-0.7,0-1.4,0.4-1.8,1L2.1,30.9c0,0,0,0,0,0
		C0.8,33.2,0,35.8,0,38.5c0,8,6.5,14.4,14.4,14.4c8,0,14.4-6.5,14.4-14.4c0-0.5,0-0.9-0.1-1.3c0.1,0,0.2-0.1,0.3-0.2
		c0,0,2.4-1.6,6.1,0.1c0,0.5-0.1,0.9-0.1,1.4c0,8,6.5,14.4,14.4,14.4c8,0,14.4-6.5,14.4-14.4c0-3-0.9-5.8-2.5-8.1
		C61.4,30.4,51.3,11.2,51.3,11.2z M14.4,49C8.6,49,4,44.3,4,38.5s4.7-10.4,10.4-10.4c5.8,0,10.4,4.7,10.4,10.4S20.2,49,14.4,49z
		 M49.5,49c-5.8,0-10.4-4.7-10.4-10.4s4.7-10.4,10.4-10.4c3.5,0,6.7,1.8,8.5,4.5l0.1,0.2c0,0.1,0.1,0.1,0.2,0.2
		c1,1.6,1.6,3.5,1.6,5.5C60,44.3,55.3,49,49.5,49z"/>
</g>
</svg>
